<?xml version="1.0" encoding="UTF-8"?><svg id="Layer_1" xmlns="http://www.w3.org/2000/svg" viewBox="0 0 261.68 272.13"><defs><style>.cls-1,.cls-2{fill:#fff;}.cls-3{fill:none;stroke:#fff;stroke-width:6px;}.cls-3,.cls-2{stroke-miterlimit:10;}.cls-2{stroke:#000;stroke-width:.25px;}</style></defs><path class="cls-2" d="M51.28,265.84c10.48-8.2,24.79-10.83,38.47-10.46,23.96,12.21,56.33,12.33,80.35.04l11.04.1.05-7.91c14.21-12.65,14.06-29.75-.03-42.37l-.02-5.08-6.4.07c-25.29-15.71-63.94-15.83-89.33-.05h-7.3s-.11,5.89-.11,5.89c-13.22,12.53-12.99,28.48.11,40.96l-.11,8.17c-3.59-2.71-6.26-5.28-9.14-8.63l-6.88.05c3.13,2.98,5.12,5.35,6.38,8.79l-5.18,1.62c1.03-3.34-.21-6.63-3.04-8.72l-10.06-7.42,7.25-.05-2.81-11.5c-3.68,4.36-9.38,7.1-15.04,5.1,6.61.39,13.45-6.72,15.14-12.14s2.77-10.56,7.76-14.2c-4.75,9.33-5.97,19.12-2.48,28.71.37,1.03,2.75,1.75,4,1.6-8.24-19.99,4.95-37.58,24.85-47.17,25.23-12.16,59.5-11.88,84.36.95,18.94,9.77,31.07,27.12,22.92,46.24,1.38.15,3.66-.56,4.13-1.82,3.51-9.39,2.16-18.78-2.3-28.17,4.73,3.4,5.88,8.51,7.35,13.4,1.66,5.52,8.53,13.23,15.62,12.55-5.5,1.97-11.46-.36-15.25-5.04l-2.82,11.43,7.07.13-10.15,7.44c-2.84,2.08-3.83,5.39-3.02,8.65l-5.16-1.59c1.31-3.55,3.56-6.26,6.56-8.83h-6.81c-3.03,3.39-6.2,6.31-9.77,9.25,10.34,1.2,19.85,4.23,27.77,10.39l-12.24-1.63c-3.92-.52-7.61.62-11.35,1.56.77-2.26,2.53-3.07,4.94-4.02-.43-1.09-2.1-2.26-3.71-2.32-8.09-.3-17.02,1.99-21.74,7.85l-25.75,2.58c-6.22.62-12.31.65-18.53.02l-26.12-2.62c-4.55-5.87-13.55-7.99-21.42-7.87-1.71.03-3.36.98-4.13,2.35,2.42.9,4.26,1.73,4.91,3.92-4.19-.9-7.85-1.85-11.78-1.41l-11.06,1.23Z"/><path class="cls-2" d="M31.14,246.53H7.54s1.41-14.01,1.41-14.01l-5,.51,2.28,3.54c-2.39-.45-5.75-2.72-5.08-5.12.75-2.72,4.74-3.3,8.04-2.88l.75-10.87c-9.08-12.53-10.27-25.91,1.42-37.31l-6-73.89c-.45-5.58-1.59-10.62-2.92-15.95,4.24-2.67,8.37-5.51,11.33-9.36,2.77-3.6,4.62-8.43,3.12-12.65-.99-2.78-2.07-5.11-3.3-8-.46,2.72-.81,5.07-.75,7.66.08,3.67,5.37,6.61-2.69,12.81l-3.75-12.35,3.72-37.76c.99,5.72,2.63,10.89,4.11,16.42,1.86,6.96,4.4,13.41,6.98,20.18,2.16,5.68-.55,11.64-3.99,16.35,1.38,10.39,2.08,20.32,2.09,30.73l.02,26.07-2.78,74.76c-2.71-3.22-4.42-6.47-5.81-9.97l.41-17.78c-6.97,9.35-3.18,20.92,4,29.62,5.47,6.63,11.73,12.85,19.52,17.4,6.74,3.94,13.45,7.22,19.69,11.77,1.63,1.18,2.95,2.96,3.25,4.8-2.9-1.88-5.61-4.51-9.22-4.54l-9.51-.08c6.09,3.65,11.53,8.02,15.77,13.59l-5.54,4.19c1.95-8.48-8.63-14.1-17.92-17.86ZM14.11,138.95h.58s-.45-16.36-.45-16.36c-.31-11.26-.97-22.01-2.51-33.17l-4,2.93c1.93,8.57,3.15,16.67,4.08,25.25l2.31,21.35ZM20.89,229.78l-4.99-4.73-.34,4,5.33.73ZM36.68,240.74c-7.19-4.02-13.8-6.62-21.45-7.74l-.78,7.83,22.23-.09Z"/><path class="cls-2" d="M235.31,246.66c-10.47.08-26.73,7.56-24.56,17.76-1.62-1.53-3.15-2.75-5.44-4.1,3.78-5.52,9.49-9.88,15.69-13.7l-9.15.03c-3.78.01-6.6,2.68-9.58,4.6.29-1.57,1.35-3.26,2.72-4.29,6.38-4.77,13.29-8.18,20.25-12.22,7.48-4.34,13.54-10.27,18.89-16.54,7.72-9.06,11.85-20.72,4.88-30.47l.05,17.58c.01,3.63-3.47,7-5.51,10.09l-2.53-60.17-.03-50.09c0-7.31.96-14.03,1.85-21.26-3.44-4.79-6.29-10.89-4-16.61,2.7-6.76,5.21-13.21,7.03-20.18l4.02-15.38,3.74,36.94-3.8,12.34c-1.97-1.66-3.51-3.61-4.78-5.67l2.02-7.16c.67-2.36-.33-5.33-.6-7.55-1.29,3.03-2.92,5.87-3.59,8.86-1.93,8.53,6.68,16.43,14.74,21.05-1.55,5.87-2.69,11.62-3.19,17.84l-5.77,71.95c11.88,11.78,10.28,24.84,1.3,37.74l.83,10.43c2.97-.22,6.8,0,7.93,2.54,1.2,2.71-2.66,5.23-4.97,5.45l2.26-3.4-4.96-.51,1.45,13.95-17.17.12ZM250.09,103.44l2.24-11.18-4.03-2.76c-2.24,16.34-2.92,32.79-2.51,49.25l.79-6.21,3.52-29.09ZM244.55,228.99l-.55-3.94-4.88,4.79,5.43-.85ZM245.57,240.81l-.77-7.83c-8.07,1.21-14.94,4.06-21.56,7.77l22.33.06Z"/><path class="cls-2" d="M223.05,7.81H36.95c-2.96,7.99-11.48,12.09-20.13,15.18l-1.49,17.62c-3.06-7.18-3.69-14.2-4.64-21.72,6.34-1.76,12.1-4.12,16.91-8.01,2.87-2.32,3.8-5.36,3.31-8.81h198.22c-1.88,9.02,10.64,14.07,20.09,16.76-.73,7.39-1.54,14.42-4.48,21.72l-1.57-17.57c-8.68-3.1-17.18-7.14-20.12-15.16Z"/><ellipse class="cls-3" cx="130.13" cy="226.42" rx="65.07" ry="40.39"/><path class="cls-1" d="M10.61,1.9h239.03l-.43,16.92s-16.22-.66-20.86-12.66l-195.87-.77s-1.78,11.9-21.79,13.5l-.08-16.98Z"/></svg>